<mxfile host="app.diagrams.net" modified="2021-08-18T02:50:07.361Z" agent="5.0 (Macintosh; Intel Mac OS X 10_15_7) AppleWebKit/537.36 (KHTML, like Gecko) Chrome/91.0.4472.114 Safari/537.36" etag="ru_iPoScwtMpYkvSvL06" version="14.9.5" type="github">
  <diagram id="OotIc17HLVYPigmdzYNU" name="Page-1">
    <mxGraphModel dx="1216" dy="752" grid="0" gridSize="10" guides="1" tooltips="1" connect="1" arrows="1" fold="1" page="1" pageScale="1" pageWidth="850" pageHeight="1100" math="0" shadow="0">
      <root>
        <mxCell id="0" />
        <mxCell id="1" parent="0" />
        <mxCell id="Kmbe-DirLIugYvf1WYu4-1" value="&lt;font style=&quot;font-size: 20px&quot;&gt;选品平台&lt;/font&gt;" style="rounded=0;whiteSpace=wrap;html=1;fillColor=#fa6800;strokeColor=#C73500;fontColor=#000000;" vertex="1" parent="1">
          <mxGeometry x="316" y="46" width="100" height="40" as="geometry" />
        </mxCell>
        <mxCell id="Kmbe-DirLIugYvf1WYu4-2" style="edgeStyle=orthogonalEdgeStyle;rounded=0;orthogonalLoop=1;jettySize=auto;html=1;" edge="1" parent="1" source="Kmbe-DirLIugYvf1WYu4-3" target="Kmbe-DirLIugYvf1WYu4-6">
          <mxGeometry relative="1" as="geometry" />
        </mxCell>
        <mxCell id="Kmbe-DirLIugYvf1WYu4-3" value="&lt;span style=&quot;font-size: 18px&quot;&gt;运营在选品集&lt;br&gt;建规则&lt;/span&gt;" style="rounded=1;whiteSpace=wrap;html=1;fontSize=12;glass=0;strokeWidth=1;shadow=0;" vertex="1" parent="1">
          <mxGeometry x="96" y="116" width="120" height="40" as="geometry" />
        </mxCell>
        <mxCell id="Kmbe-DirLIugYvf1WYu4-4" value="&lt;font style=&quot;font-size: 20px&quot;&gt;运营平台&lt;/font&gt;" style="rounded=0;whiteSpace=wrap;html=1;fillColor=#fa6800;strokeColor=#C73500;fontColor=#000000;" vertex="1" parent="1">
          <mxGeometry x="106" y="46" width="100" height="40" as="geometry" />
        </mxCell>
        <mxCell id="Kmbe-DirLIugYvf1WYu4-5" style="edgeStyle=orthogonalEdgeStyle;rounded=0;orthogonalLoop=1;jettySize=auto;html=1;" edge="1" parent="1" source="Kmbe-DirLIugYvf1WYu4-6" target="Kmbe-DirLIugYvf1WYu4-8">
          <mxGeometry relative="1" as="geometry">
            <Array as="points">
              <mxPoint x="366" y="246" />
              <mxPoint x="156" y="246" />
            </Array>
          </mxGeometry>
        </mxCell>
        <mxCell id="Kmbe-DirLIugYvf1WYu4-6" value="&lt;font style=&quot;font-size: 18px&quot;&gt;根据规则圈选&lt;br&gt;商品，每天&lt;br&gt;定时更新&lt;/font&gt;" style="rounded=1;whiteSpace=wrap;html=1;fontSize=12;glass=0;strokeWidth=1;shadow=0;" vertex="1" parent="1">
          <mxGeometry x="306" y="166" width="120" height="60" as="geometry" />
        </mxCell>
        <mxCell id="Kmbe-DirLIugYvf1WYu4-7" style="edgeStyle=orthogonalEdgeStyle;rounded=0;orthogonalLoop=1;jettySize=auto;html=1;" edge="1" parent="1" source="Kmbe-DirLIugYvf1WYu4-8" target="Kmbe-DirLIugYvf1WYu4-11">
          <mxGeometry relative="1" as="geometry">
            <Array as="points">
              <mxPoint x="156" y="316" />
              <mxPoint x="546" y="316" />
            </Array>
          </mxGeometry>
        </mxCell>
        <mxCell id="Kmbe-DirLIugYvf1WYu4-8" value="&lt;span style=&quot;font-size: 18px&quot;&gt;运营填入&lt;br&gt;选品集ID&lt;/span&gt;" style="rounded=1;whiteSpace=wrap;html=1;fontSize=12;glass=0;strokeWidth=1;shadow=0;" vertex="1" parent="1">
          <mxGeometry x="96" y="267" width="120" height="40" as="geometry" />
        </mxCell>
        <mxCell id="Kmbe-DirLIugYvf1WYu4-9" value="&lt;font style=&quot;font-size: 20px&quot;&gt;iGraph&lt;/font&gt;" style="rounded=0;whiteSpace=wrap;html=1;fillColor=#fa6800;strokeColor=#C73500;fontColor=#000000;" vertex="1" parent="1">
          <mxGeometry x="496" y="46" width="100" height="40" as="geometry" />
        </mxCell>
        <mxCell id="Kmbe-DirLIugYvf1WYu4-10" value="&lt;font style=&quot;font-size: 20px&quot;&gt;ODPS&lt;/font&gt;" style="rounded=0;whiteSpace=wrap;html=1;fillColor=#fa6800;strokeColor=#C73500;fontColor=#000000;" vertex="1" parent="1">
          <mxGeometry x="666" y="46" width="100" height="40" as="geometry" />
        </mxCell>
        <mxCell id="Kmbe-DirLIugYvf1WYu4-11" value="&lt;font style=&quot;font-size: 18px&quot;&gt;实时写入iGraph&lt;/font&gt;" style="rounded=1;whiteSpace=wrap;html=1;fontSize=12;glass=0;strokeWidth=1;shadow=0;fillColor=#fad7ac;strokeColor=#b46504;" vertex="1" parent="1">
          <mxGeometry x="486" y="336" width="120" height="40" as="geometry" />
        </mxCell>
        <mxCell id="Kmbe-DirLIugYvf1WYu4-12" style="edgeStyle=orthogonalEdgeStyle;rounded=0;orthogonalLoop=1;jettySize=auto;html=1;entryX=0.5;entryY=0;entryDx=0;entryDy=0;" edge="1" parent="1" source="Kmbe-DirLIugYvf1WYu4-13" target="Kmbe-DirLIugYvf1WYu4-17">
          <mxGeometry relative="1" as="geometry" />
        </mxCell>
        <mxCell id="Kmbe-DirLIugYvf1WYu4-13" value="&lt;font style=&quot;font-size: 18px&quot;&gt;每天定时更新发MetaQ消息&lt;/font&gt;" style="rounded=1;whiteSpace=wrap;html=1;fontSize=12;glass=0;strokeWidth=1;shadow=0;" vertex="1" parent="1">
          <mxGeometry x="306" y="392" width="120" height="40" as="geometry" />
        </mxCell>
        <mxCell id="Kmbe-DirLIugYvf1WYu4-14" style="edgeStyle=orthogonalEdgeStyle;rounded=0;orthogonalLoop=1;jettySize=auto;html=1;entryX=0.5;entryY=0;entryDx=0;entryDy=0;" edge="1" parent="1" source="Kmbe-DirLIugYvf1WYu4-15" target="Kmbe-DirLIugYvf1WYu4-19">
          <mxGeometry relative="1" as="geometry" />
        </mxCell>
        <mxCell id="Kmbe-DirLIugYvf1WYu4-15" value="&lt;font style=&quot;font-size: 18px&quot;&gt;将选品集表拼接到主表&lt;/font&gt;" style="rounded=1;whiteSpace=wrap;html=1;fontSize=12;glass=0;strokeWidth=1;shadow=0;" vertex="1" parent="1">
          <mxGeometry x="653" y="552" width="120" height="40" as="geometry" />
        </mxCell>
        <mxCell id="Kmbe-DirLIugYvf1WYu4-33" style="edgeStyle=orthogonalEdgeStyle;rounded=0;orthogonalLoop=1;jettySize=auto;html=1;entryX=0.5;entryY=0;entryDx=0;entryDy=0;exitX=0.5;exitY=1;exitDx=0;exitDy=0;" edge="1" parent="1" source="Kmbe-DirLIugYvf1WYu4-17" target="Kmbe-DirLIugYvf1WYu4-15">
          <mxGeometry relative="1" as="geometry" />
        </mxCell>
        <mxCell id="Kmbe-DirLIugYvf1WYu4-17" value="&lt;span style=&quot;font-size: 18px&quot;&gt;生成odps表&lt;br&gt;拼接逻辑&lt;/span&gt;" style="rounded=1;whiteSpace=wrap;html=1;fontSize=12;glass=0;strokeWidth=1;shadow=0;fillColor=#fad7ac;strokeColor=#b46504;" vertex="1" parent="1">
          <mxGeometry x="96" y="472" width="120" height="40" as="geometry" />
        </mxCell>
        <mxCell id="Kmbe-DirLIugYvf1WYu4-18" style="edgeStyle=orthogonalEdgeStyle;rounded=0;orthogonalLoop=1;jettySize=auto;html=1;entryX=0.5;entryY=0;entryDx=0;entryDy=0;" edge="1" parent="1" source="Kmbe-DirLIugYvf1WYu4-19" target="Kmbe-DirLIugYvf1WYu4-20">
          <mxGeometry relative="1" as="geometry">
            <Array as="points">
              <mxPoint x="696" y="662" />
              <mxPoint x="556" y="662" />
            </Array>
          </mxGeometry>
        </mxCell>
        <mxCell id="Kmbe-DirLIugYvf1WYu4-19" value="&lt;font style=&quot;font-size: 18px&quot;&gt;定时任务将主表回流iGraph&lt;/font&gt;" style="rounded=1;whiteSpace=wrap;html=1;fontSize=12;glass=0;strokeWidth=1;shadow=0;fillColor=#fad7ac;strokeColor=#b46504;" vertex="1" parent="1">
          <mxGeometry x="653" y="612" width="120" height="40" as="geometry" />
        </mxCell>
        <mxCell id="Kmbe-DirLIugYvf1WYu4-20" value="&lt;span style=&quot;font-size: 18px&quot;&gt;每日T+1全量&lt;br&gt;更新iGraph&lt;/span&gt;" style="rounded=1;whiteSpace=wrap;html=1;fontSize=12;glass=0;strokeWidth=1;shadow=0;" vertex="1" parent="1">
          <mxGeometry x="496" y="676" width="120" height="40" as="geometry" />
        </mxCell>
        <mxCell id="Kmbe-DirLIugYvf1WYu4-21" value="" style="rounded=0;whiteSpace=wrap;html=1;fillColor=none;dashed=1;" vertex="1" parent="1">
          <mxGeometry x="46" y="28" width="750" height="706" as="geometry" />
        </mxCell>
        <mxCell id="Kmbe-DirLIugYvf1WYu4-22" value="" style="line;strokeWidth=1;html=1;dashed=1;fillColor=none;" vertex="1" parent="1">
          <mxGeometry x="46" y="376" width="750" height="10" as="geometry" />
        </mxCell>
        <mxCell id="Kmbe-DirLIugYvf1WYu4-23" value="&lt;font style=&quot;font-size: 16px&quot;&gt;实时&lt;/font&gt;" style="rounded=0;whiteSpace=wrap;html=1;strokeWidth=1;fillColor=#dae8fc;strokeColor=#6c8ebf;" vertex="1" parent="1">
          <mxGeometry x="56" y="196" width="25" height="90" as="geometry" />
        </mxCell>
        <mxCell id="Kmbe-DirLIugYvf1WYu4-24" value="&lt;font style=&quot;font-size: 16px&quot;&gt;离线&lt;/font&gt;" style="rounded=0;whiteSpace=wrap;html=1;strokeWidth=1;fillColor=#dae8fc;strokeColor=#6c8ebf;" vertex="1" parent="1">
          <mxGeometry x="56" y="506" width="25" height="97" as="geometry" />
        </mxCell>
        <mxCell id="Kmbe-DirLIugYvf1WYu4-28" value="" style="endArrow=none;dashed=1;html=1;dashPattern=1 3;strokeWidth=2;exitX=0.281;exitY=0.999;exitDx=0;exitDy=0;exitPerimeter=0;" edge="1" parent="1" source="Kmbe-DirLIugYvf1WYu4-21">
          <mxGeometry width="50" height="50" relative="1" as="geometry">
            <mxPoint x="257" y="760" as="sourcePoint" />
            <mxPoint x="257" y="30" as="targetPoint" />
          </mxGeometry>
        </mxCell>
        <mxCell id="Kmbe-DirLIugYvf1WYu4-30" value="" style="line;strokeWidth=1;html=1;dashed=1;fillColor=none;" vertex="1" parent="1">
          <mxGeometry x="46" y="96" width="750" height="10" as="geometry" />
        </mxCell>
        <mxCell id="Kmbe-DirLIugYvf1WYu4-31" value="" style="endArrow=none;dashed=1;html=1;dashPattern=1 3;strokeWidth=2;exitX=0.281;exitY=0.999;exitDx=0;exitDy=0;exitPerimeter=0;" edge="1" parent="1">
          <mxGeometry width="50" height="50" relative="1" as="geometry">
            <mxPoint x="451" y="731.2939999999999" as="sourcePoint" />
            <mxPoint x="451.25" y="28" as="targetPoint" />
          </mxGeometry>
        </mxCell>
        <mxCell id="Kmbe-DirLIugYvf1WYu4-32" value="" style="endArrow=none;dashed=1;html=1;dashPattern=1 3;strokeWidth=2;exitX=0.281;exitY=0.999;exitDx=0;exitDy=0;exitPerimeter=0;" edge="1" parent="1">
          <mxGeometry width="50" height="50" relative="1" as="geometry">
            <mxPoint x="629" y="732.6439999999999" as="sourcePoint" />
            <mxPoint x="629.25" y="29.35" as="targetPoint" />
          </mxGeometry>
        </mxCell>
      </root>
    </mxGraphModel>
  </diagram>
</mxfile>
